<svg xmlns="http://www.w3.org/2000/svg" viewBox="0 0 24 24" fill="#07C160"><path d="M9.5 4C4.81 4 1 7.13 1 11c0 2.21 1.27 4.18 3.27 5.45L3.5 19l2.86-1.43c.69.13 1.41.21 2.14.21.16 0 .31-.01.47-.02-.31-.74-.47-1.54-.47-2.38 0-3.45 3.36-6.25 7.5-6.25.16 0 .32.01.48.02C15.16 6.32 12.62 4 9.5 4zM6.5 9c-.55 0-1-.45-1-1s.45-1 1-1 1 .45 1 1-.45 1-1 1zm5 0c-.55 0-1-.45-1-1s.45-1 1-1 1 .45 1 1-.45 1-1 1zm12 6.5c0-2.92-2.91-5.29-6.5-5.29S10.5 12.58 10.5 15.5c0 2.92 2.91 5.29 6.5 5.29.61 0 1.2-.07 1.77-.19l2.4 1.2-.66-2.16C22.13 18.65 23 17.16 23 15.5zm-9 -.86c-.41 0-.75-.34-.75-.75s.34-.75.75-.75.75.34.75.75-.34.75-.75.75zm5 0c-.41 0-.75-.34-.75-.75s.34-.75.75-.75.75.34.75.75-.34.75-.75.75z"/></svg>
